<?xml version="1.0" encoding="utf-8"?>
<!-- Generator: Adobe Illustrator 21.0.0, SVG Export Plug-In . SVG Version: 6.00 Build 0)  -->
<svg version="1.1" fill="#49C12B" id="Layer_1" xmlns="http://www.w3.org/2000/svg" xmlns:xlink="http://www.w3.org/1999/xlink" x="0px" y="0px"
	 viewBox="0 0 512 512" style="enable-background:new 0 0 512 512;" xml:space="preserve">
<g>
	<path d="M200.6,0l-3.1,16l-11.7,58.5c-18.8,7.4-35.7,17.8-51.1,30.2L77.5,84.9L62.2,80l-8,14.2l-39.4,67.7l-8,14.2l11.7,10.5
		l44.3,38.8c-1.6,10.1-3.7,20.2-3.7,30.8c0,10.6,2.1,20.7,3.7,30.8l-44.3,38.8L6.8,336l8,14.2l39.4,67.7l8,14.2l15.4-4.9l57.2-19.7
		c15.4,12.4,32.3,22.8,51.1,30.2l11.7,58.5l3.1,16h110.8l3.1-16l11.7-58.5c18.8-7.4,35.7-17.8,51.1-30.2l57.2,19.7l15.4,4.9l8-14.2
		l39.4-67.7l8-14.2l-11.7-10.5l-44.3-38.8c1.6-10.1,3.7-20.2,3.7-30.8s-2.1-20.7-3.7-30.8l44.3-38.8l11.7-10.5l-8-14.2L458,93.9
		l-8-14.2l-15.4,4.9l-57.2,19.7c-15.4-12.4-32.3-22.8-51.1-30.2L314.5,16l-3.1-16H200.6z M232.6,39.4h46.8l9.8,51.1l2.5,11.7
		l11.1,3.7c22.4,7,42.7,18.8,59.7,34.5l8.6,8l11.1-3.7l49.8-17.2l23.4,40l-39.4,35l-9.2,7.4l3.1,11.7c2.5,11.2,3.7,22.7,3.7,34.5
		s-1.2,23.2-3.7,34.5l-2.5,11.7l8.6,7.4l39.4,35.1l-23.4,40l-49.8-17.2l-11.1-3.7l-8.6,8c-17,15.6-37.3,27.5-59.7,34.5l-11.1,3.7
		l-2.5,11.7l-9.8,51.1h-46.8l-9.8-51.1l-2.5-11.7l-11.1-3.7c-22.4-7-42.7-18.8-59.7-34.5l-8.6-8l-11.1,3.7l-49.8,17l-23.4-40
		L96,309.5l9.2-7.4l-3.1-11.7c-2.5-11.2-3.7-22.7-3.7-34.5s1.2-23.2,3.7-34.5l3.1-11.7l-9.2-7.4l-39.4-35.1l23.4-40l49.8,17.2
		l11.1,3.7l8.6-8c17-15.6,37.3-27.5,59.7-34.5l11.1-3.7l2.5-11.7L232.6,39.4z M256,157.5c-54.2,0-98.5,44.3-98.5,98.5
		s44.3,98.5,98.5,98.5s98.5-44.3,98.5-98.5S310.2,157.5,256,157.5z M256,196.9c32.8,0,59.1,26.2,59.1,59.1s-26.2,59.1-59.1,59.1
		s-59.1-26.2-59.1-59.1S223.2,196.9,256,196.9z"/>
</g>
</svg>
