<?xml version="1.0" encoding="UTF-8" standalone="no" ?>
<!DOCTYPE svg PUBLIC "-//W3C//DTD SVG 1.1//EN" "http://www.w3.org/Graphics/SVG/1.1/DTD/svg11.dtd">
<svg xmlns="http://www.w3.org/2000/svg" xmlns:xlink="http://www.w3.org/1999/xlink" version="1.1" width="1080" height="1080" viewBox="0 0 1080 1080" xml:space="preserve">
<desc>Created with Fabric.js 5.2.4</desc>
<defs>
</defs>
<rect x="0" y="0" width="100%" height="100%" fill="transparent"></rect>
<g transform="matrix(1 0 0 1 540 540)" id="c0e29e98-9fa4-4566-a5be-f3aa82e6d186"  >
<rect style="stroke: none; stroke-width: 1; stroke-dasharray: none; stroke-linecap: butt; stroke-dashoffset: 0; stroke-linejoin: miter; stroke-miterlimit: 4; fill: rgb(255,255,255); fill-rule: nonzero; opacity: 1; visibility: hidden;" vector-effect="non-scaling-stroke"  x="-540" y="-540" rx="0" ry="0" width="1080" height="1080" />
</g>
<g transform="matrix(1 0 0 1 540 540)" id="2b57a4df-7941-44ec-9798-71b3ceb56982"  >
</g>
<g transform="matrix(1.81 0 0 1.81 540 540)"  >
<path style="stroke: none; stroke-width: 1; stroke-dasharray: none; stroke-linecap: butt; stroke-dashoffset: 0; stroke-linejoin: miter; stroke-miterlimit: 4; fill: rgb(219,19,133); fill-rule: nonzero; opacity: 1;" vector-effect="non-scaling-stroke"  transform=" translate(-221.02, -221.02)" d="M 221.02 341.304 C 171.312 341.304 117.81400000000001 321.864 66.31 285.08399999999995 C 27.808 257.59 4.044 230.351 3.051 229.203 C -1.0169999999999995 224.506 -1.0169999999999995 217.534 3.051 212.836 C 4.0440000000000005 211.69000000000003 27.807000000000002 184.449 66.31 156.955 C 117.815 120.17800000000001 171.313 100.73600000000002 221.02 100.73600000000002 C 270.728 100.73600000000002 324.227 120.17700000000002 375.73 156.955 C 414.232 184.449 437.99600000000004 211.68900000000002 438.98900000000003 212.836 C 443.057 217.53300000000002 443.057 224.50500000000002 438.98900000000003 229.203 C 437.99600000000004 230.349 414.23300000000006 257.59000000000003 375.73 285.084 C 324.227 321.863 270.729 341.304 221.02 341.304 z M 29.638 221.021 C 39.248000000000005 230.82 57.385000000000005 248.051 81.33200000000001 265.092 C 114.162 288.453 165.046 316.304 221.01999999999998 316.304 C 276.99399999999997 316.304 327.87899999999996 288.453 360.70799999999997 265.092 C 384.652 248.05399999999997 402.78999999999996 230.82099999999997 412.402 221.021 C 402.793 211.22199999999998 384.655 193.99099999999999 360.70799999999997 176.95 C 327.87899999999996 153.588 276.99399999999997 125.73799999999999 221.01999999999998 125.73799999999999 C 165.046 125.73799999999999 114.16199999999998 153.588 81.332 176.95 C 57.388 193.988 39.25 211.219 29.638 221.021 z" stroke-linecap="round" />
</g>
<g transform="matrix(1.81 0 0 1.81 540 540)"  >
<path style="stroke: none; stroke-width: 1; stroke-dasharray: none; stroke-linecap: butt; stroke-dashoffset: 0; stroke-linejoin: miter; stroke-miterlimit: 4; fill: rgb(219,19,133); fill-rule: nonzero; opacity: 1;" vector-effect="non-scaling-stroke"  transform=" translate(-221.02, -221.02)" d="M 221.02 298.521 C 178.286 298.521 143.52 263.754 143.52 221.02100000000002 C 143.52 178.288 178.286 143.52100000000002 221.02 143.52100000000002 C 239.81400000000002 143.52100000000002 257.944 150.335 272.068 162.709 C 277.26099999999997 167.258 277.78299999999996 175.155 273.234 180.348 C 268.685 185.54100000000003 260.787 186.062 255.59499999999997 181.514 C 246.03099999999998 173.13500000000002 233.75099999999998 168.52100000000002 221.01899999999998 168.52100000000002 C 192.06999999999996 168.52100000000002 168.51899999999998 192.073 168.51899999999998 221.02100000000002 C 168.51899999999998 249.96900000000002 192.06999999999996 273.521 221.01899999999998 273.521 C 249.96899999999997 273.521 273.519 249.96900000000002 273.519 221.02100000000002 C 273.519 214.11800000000002 279.116 208.52100000000002 286.019 208.52100000000002 C 292.922 208.52100000000002 298.519 214.11800000000002 298.519 221.02100000000002 C 298.521 263.754 263.754 298.521 221.02 298.521 z" stroke-linecap="round" />
</g>
<g transform="matrix(1.81 0 0 1.81 540 540)"  >
<path style="stroke: none; stroke-width: 1; stroke-dasharray: none; stroke-linecap: butt; stroke-dashoffset: 0; stroke-linejoin: miter; stroke-miterlimit: 4; fill: rgb(219,19,133); fill-rule: nonzero; opacity: 1;" vector-effect="non-scaling-stroke"  transform=" translate(-221.02, -221.02)" d="M 221.02 246.021 C 207.235 246.021 196.02 234.80599999999998 196.02 221.021 C 196.02 207.236 207.235 196.021 221.02 196.021 C 234.806 196.021 246.02 207.236 246.02 221.021 C 246.02 234.80599999999998 234.806 246.021 221.02 246.021 z" stroke-linecap="round" />
</g>
</svg>