<?xml version="1.0" encoding="utf-8"?>
<!-- Generator: Adobe Illustrator 24.1.1, SVG Export Plug-In . SVG Version: 6.00 Build 0)  -->
<svg version="1.1" fill="#49C12B" id="Layer_1" xmlns="http://www.w3.org/2000/svg" xmlns:xlink="http://www.w3.org/1999/xlink" x="0px" y="0px"
	 viewBox="0 0 512 512" style="enable-background:new 0 0 512 512;" xml:space="preserve">
<style type="text/css">
	.st0{fill-rule:evenodd;clip-rule:evenodd;}
</style>
<g>
	<path d="M96,0h224l128,128v352c0,17.7-14.3,32-32,32H96c-17.7,0-32-14.3-32-32V32C64,14.3,78.3,0,96,0z M306.8,32H96v448h320V141.3
		L306.8,32z M415.9,127.9L448,160l-126.8-0.4c-17.5-0.1-31.7-14.2-31.9-31.7L288,0l32.3,32.3l1,95.3L415.9,127.9z M448,160
		l-126.8-0.4c-17.5-0.1-31.7-14.2-31.9-31.7L288,0l32.3,32.3l1,95.3l94.6,0.3L448,160z"/>
	<rect x="160" y="288" class="st0" width="192" height="32"/>
	<rect x="160" y="384" class="st0" width="192" height="32"/>
</g>
</svg>
